<svg xmlns="http://www.w3.org/2000/svg" width="1336" height="1016" viewBox="0 0 1336 1016">
  <defs>
    <style>
      .cls-1 {
        fill: #0c3fa7;
        fill-rule: evenodd;
      }
    </style>
  </defs>
  <path id="Color_Fill_2" data-name="Color Fill 2" class="cls-1" d="M934,444h232c5.52,0,15.3-1.287,19,1,4.23,1.285,6.58,3.726,7,9,4.93,8.58-21.88,29.877-27,35l-75,75c-9.42,9.42-16.53,25.016-35,25q-52.08-49.982-103-101c-5.723-5.723-31.286-26.455-25-38Z"/>
  <path id="Color_Fill_1" data-name="Color Fill 1" class="cls-1" d="M399,178c84.945-1.019,131.439,38.066,156,97,7.191,17.254,10,34.977,10,61q-0.5,11.5-1,23c-2.95,11.364-6.228,24.479-11,35-15.914,35.087-47.679,64.215-84,79-11.484,4.675-25.047,6.151-38,9H416c-23.775,0-40.84-3.278-57-10-46.153-19.2-73.587-49.855-91-98-4.087-11.3-9.966-45.137-6-63,2.563-11.543,4.071-23.346,8-34,13.41-36.364,47.243-72.031,82-87,10.251-4.415,21.957-6.983,33-10C389.379,178.8,395.563,180.135,399,178ZM274,484h26c16.52,4.611,33.689,21.515,48,30,11.256,6.674,30.53,12.573,44,16,6.513,1.657,15.857.739,22,2,9.885,2.028,29.335-2.644,36-5l14-3a261.354,261.354,0,0,0,47-25c11.721-7.777,25.314-20.587,50-15,62.221,14.081,89.586,53.554,108,111,4.859,15.159,4.13,29.546,8,46,10.283,43.719,3.8,100.112-15,127-11.6,16.6-31.828,30.151-53,37-20.705,6.7-49.84,5-77,5H251c-49.123-11.174-78.439-28.7-93-74-5.464-17-3.014-43.483-3-65,0.011-17.045,1.276-32.662,5-48,5.584-23,11.238-45.227,20-65,10.477-23.641,34.645-52.414,58-63,8.311-3.767,17.263-6.253,26-9C267.478,484.907,271.365,485.682,274,484Z"/>
</svg>
